<svg id="Layer_1" xmlns="http://www.w3.org/2000/svg" viewBox="0 0 173.64 175.76"><defs><style>.cls-1{fill:none;stroke:#000;stroke-miterlimit:10;stroke-width:4px;}</style></defs><path class="cls-1" d="M102.2,78.68l-2.21-13.87,17.43,.6,1.74-23.29,16.81-2.33,1.42-14.92,11.29,3.16-15.86-25.24,10.56-.73c20.88,17.72,34.71,44.52,25.2,62.48-9.58,18.09-39.86,21.65-66.38,14.14Z" id="id_101" style="stroke: rgb(252, 255, 255);"></path><path class="cls-1" d="M110.53,135.64c-16.64,36.31-48.27,45.45-76.25,32.63C6.3,155.45-7.43,125.53,9.21,89.22c4.32-9.43,10.35-18.54,17.39-26.66l2.82,22.18,25.17-17.9-2.6,11.87,15.52,.58,3.41,17.25,24.19,.42,.42,18.07,23.01-5.04c-1.68,8.94-4.37,17.69-8.02,25.65Z" id="id_102" style="stroke: rgb(252, 252, 252);"></path></svg>